<svg xmlns="http://www.w3.org/2000/svg" width="1990" height="535" viewBox="5 732.5 1990 535">
  <defs>
    <style>
      .cls-1, .cls-4 {
        fill: #ff4646;
      }

      .cls-2 {
        fill: #09f;
      }

      .cls-2, .cls-4 {
        fill-rule: evenodd;
      }

      .cls-3 {
        fill: #010101;
        opacity: 0;
      }
    </style>
  </defs>
  <rect class="cls-1" x="5.375" y="728.812" width="1989.245" height="542.378"/>
  <path id="TECH_JOURNAL" data-name="TECH JOURNAL" class="cls-2" d="M620.161,1180.49a5.5,5.5,0,0,1-.728,3.26,7.97,7.97,0,0,1-3.459,1.95q-2.822.99-2.822,5.63c0,2.59.225,4.16,0.675,4.72s1.455,0.82,3.016.82h39.615c1.921,0,3.151-.23,3.692-0.7s0.81-2.11.81-4.93a10.349,10.349,0,0,0-.584-4.34,4.679,4.679,0,0,0-2.382-1.78,6.289,6.289,0,0,1-4.313-6.29V1072.56h2.7q2.514,0,4.223,4.59a79.677,79.677,0,0,1,3.146,11.8q0.808,4.38,2.111,5.21t5.887,0.83q3.592,0,4.268-1.32a8.65,8.65,0,0,0,.674-3.81c0-1.38-.06-2.73-0.18-4.06l-1.529-17.05q-0.361-4.125-.991-4.8t-3.508-.66H604.533q-4.317,0-5.393,1.04c-0.717.69-1.134,2.16-1.25,4.42l-1.093,19.29c-0.061.99-.09,1.98-0.09,2.98,0,1.71.373,2.85,1.123,3.43s2.411,0.87,4.988.87q4.043,0,5.387-1.2t1.981-5.92q1.374-10.755,2.637-13.2c0.841-1.62,1.927-2.44,3.258-2.44h4.08v107.93ZM762.8,1073.47q2.5,0,4.511,2.9t4.78,10.34q1.538,4.14,3.165,5.18t6.512,1.03q4.341,0,4.342-2.23a13.257,13.257,0,0,0-.36-2.24l-4.583-21.35c-0.359-1.66-.869-2.7-1.528-3.15a5.8,5.8,0,0,0-3.145-.66H719.16c-1.739,0-2.786.21-3.146,0.62s-0.539,1.7-.539,3.85q0,3.81.494,4.8t3.191,2.07q3.952,1.575,4.044,3.15v103.2q0,3.315-4.943,5.22-3.235,1.32-3.235,4.22c0,3.03.209,4.87,0.629,5.5s1.377,0.95,2.876.95H778.47c2.036,0,3.249-.34,3.64-1.03a27.791,27.791,0,0,0,1.474-6.17l3.333-18.79a16.928,16.928,0,0,0,.36-2.89q0-3.315-5.572-3.31-4.044,0-5.661,1.4t-3.145,5.96q-3.687,10.845-5.347,13.12t-6.066,2.28h-4.763v-57.03h7.009a3.832,3.832,0,0,1,2.921,1q0.944,0.99,1.932,5.38,0.988,4.8,2.022,5.83c0.688,0.69,2.051,1.04,4.089,1.04,3.114,0,4.972-.27,5.571-0.79s0.9-1.64.9-3.35v-27.56c0-2.43-.314-3.82-0.943-4.18s-3.311-.54-8.043-0.54a2.274,2.274,0,0,0-2.112,1.16c-0.449.77-1.034,3.12-1.753,7.03-0.419,2.21-1.019,3.64-1.8,4.31a5.639,5.639,0,0,1-3.684.99h-6.111v-47.26H762.8Zm119.252-10.34q-1.977,2.31-3.055,2.31a5.788,5.788,0,0,1-2.7-1.16,19.551,19.551,0,0,0-11.233-3.22,26.346,26.346,0,0,0-18.737,7.7q-8.043,7.7-13.21,21.8t-5.167,37.7q0,25.005,6.155,41.01,6.155,16.02,14.6,22.55a31.1,31.1,0,0,0,19.591,6.54,25.923,25.923,0,0,0,19.231-7.82q7.728-7.815,7.728-19.66,0-3.72-1.483-5t-5.257-1.29q-5.034,0-6.65,1.74t-1.887,6.21q-0.9,15.48-8.447,15.48-5.931,0-5.931-9.27v-93.11q0-12.99,5.661-13,6.83,0,10.514,18.05,1.437,7.11,2.966,9.02t5.482,1.9c2.156,0,3.594-.38,4.313-1.16s1.079-2.12,1.079-4.05a15.041,15.041,0,0,0-.09-1.58l-2.067-26.65q-0.36-4.875-1.168-6a2.808,2.808,0,0,0-2.427-1.11H885.2q-1.439,0-3.145,2.07h0Zm92.169,15.8a4.807,4.807,0,0,1,2.786-4.63,3.8,3.8,0,0,0,2.246-2.65v-3.89c0-1.93-.3-3.16-0.9-3.68a5.145,5.145,0,0,0-3.325-.79H938.184q-2.607,0-3.37.87t-0.764,5.26a7.219,7.219,0,0,0,3.325,6.37q3.324,2.145,3.325,4.55V1180.4q0,3.06-3.774,4.89a6.638,6.638,0,0,0-2.516,1.82,7,7,0,0,0-.45,3.14q0,5.13.45,5.88c0.3,0.49,1.078.74,2.336,0.74H976.2a2.719,2.719,0,0,0,2.156-.66c0.36-.44.54-2.12,0.54-5.05a5.74,5.74,0,0,0-2.337-4.88,4.862,4.862,0,0,1-2.336-4.22v-52.14H988.6v51.64q0,2.4-2.786,4.22a4.9,4.9,0,0,0-2.426,4.31q0,5.46.449,6.12t2.427,0.66h39.178q2.61,0,3.15-.54a3.15,3.15,0,0,0,.54-2.19v-5.21q0-1.5-3.15-3.31-3.855-2.325-3.86-6.21v-99.07a5.413,5.413,0,0,1,3.32-5.13,19.187,19.187,0,0,0,3.64-1.95c0.39-.35.59-1.5,0.59-3.43q0-4.8-.54-5.67t-3.15-.87h-39c-1.378,0-2.217.35-2.516,1.04s-0.449,2.58-.449,5.67c0,2.42.658,3.97,1.977,4.63a6.2,6.2,0,0,1,2.2,1.66,5.719,5.719,0,0,1,.4,2.64v41.63H974.22v-41.63Zm173.24-14.89q-0.4.735-.41,5.87,0,3.06,3.24,3.98a7.864,7.864,0,0,1,4.45,2.6q1.215,1.695,1.21,7.74v101.22q0,21.27-15.28,22.51c-1.43.11-2.29,0.36-2.56,0.75a4.918,4.918,0,0,0-.4,2.48v3.15c0,1.37.3,2.27,0.9,2.69s2.36,0.62,5.3.62q23.265,0,34.42-13.54,11.13-13.53,11.14-32.56v-91.13c0-2.2.19-3.64,0.58-4.3s1.49-1.24,3.28-1.74a5.158,5.158,0,0,0,3.01-1.69c0.45-.69.68-2.36,0.68-5.01,0-2.04-.26-3.28-0.77-3.73s-1.6-.66-3.28-0.66h-42.86C1148.61,1063.29,1147.73,1063.54,1147.46,1064.04Zm101.87,16.14q-12.18,19.11-12.17,49.98,0,30.135,11.86,49.17t32.44,19.03q21.66,0,33.56-19.49t11.91-47.79q0-23.6-6.11-38.66t-15.77-23.21a34.314,34.314,0,0,0-22.87-8.15Q1261.51,1061.06,1249.33,1080.18Zm39.95,99.81a11,11,0,0,1-2.03,6.45,6.2,6.2,0,0,1-5.34,2.9,6.445,6.445,0,0,1-5.12-2.61c-1.44-1.73-2.16-4.29-2.16-7.65v-99.9a9.441,9.441,0,0,1,2.16-6.29,6.562,6.562,0,0,1,5.21-2.56q7.275,0,7.28,10.34v99.32Zm78.51-115.46c-0.42.83-.63,2.85-0.63,6.04a7.208,7.208,0,0,0,.4,3.03,5.2,5.2,0,0,0,2.38,1.53q3.96,1.65,3.96,5.13v87.23q0,14.985,8.4,22.93t24.4,7.94q14.28,0,22.28-7.49t8-20.32v-90.29c0-2.7,1.41-4.5,4.23-5.38a3.631,3.631,0,0,0,2.06-1.28,9.378,9.378,0,0,0,.36-3.36v-3.97q0-2.985-3.23-2.98h-19.41a3.818,3.818,0,0,0-2.48.71c-0.57.47-.85,1.88-0.85,4.21q0,4.5,3.06,6.67a8.207,8.207,0,0,1,2.47,2.36,7.944,7.944,0,0,1,.49,3.35v92.69a8.653,8.653,0,0,1-2.34,5.88,7.251,7.251,0,0,1-5.66,2.65,8.018,8.018,0,0,1-5.93-2.36,8.372,8.372,0,0,1-2.33-6.17v-92.77a8.651,8.651,0,0,1,.67-4.14,6.445,6.445,0,0,1,2.65-2.07c1.74-.88,2.61-2.68,2.61-5.38s-0.18-4.32-.54-4.84-1.2-.79-2.52-0.79h-38.91C1369.4,1063.29,1368.2,1063.71,1367.79,1064.53Zm159.11,73.58q10.695,0,10.7,9.77v33.35a20.837,20.837,0,0,0,2.78,11.13q2.79,4.515,7.1,4.51h24.09c1.79,0,2.9-.3,3.32-0.91s0.63-2.51.63-5.71a4.969,4.969,0,0,0-2.43-4.55,4.057,4.057,0,0,1-2.06-3.72v-19.7q0-24-24.9-29.05,27.24-7.53,27.23-32.12,0-17.295-11.63-27.56a38.92,38.92,0,0,0-26.47-10.26h-49.69q-3.78,0-3.78,6.41c0,2.14.18,3.43,0.54,3.86a6.075,6.075,0,0,0,2.7,1.32q4.305,1.155,4.31,6.54v96.99a6.965,6.965,0,0,1-4.94,7.12,2.4,2.4,0,0,0-1.8,1.7,31.694,31.694,0,0,0-.27,5.34q0,4.305,3.23,4.3h37.94q2.505,0,3.45-1.11,0.945-1.125.94-5.92a5.036,5.036,0,0,0-2.38-4.72,4.979,4.979,0,0,1-2.25-2.07,12.157,12.157,0,0,1-.4-3.89v-41.05h4.04Zm-0.99-65.38q6.03,0,8.86,2.85c1.88,1.91,2.83,5.17,2.83,9.81v26.65q0,16.47-8.9,16.47h-5.84v-55.78h3.05Zm145.73,124.14h15.28V1079.26a4.83,4.83,0,0,1,.81-2.97c0.54-.72,1.85-1.47,3.95-2.24a3.23,3.23,0,0,0,1.84-1.41,11.129,11.129,0,0,0,.41-3.89q0-5.2-2.07-5.46h-24.8a2.957,2.957,0,0,0-2.07.54c-0.36.36-.54,1.36-0.54,3.02q0,3.975.77,5.34a6.6,6.6,0,0,0,3.37,2.44q4.4,1.665,4.4,5.64v47.62l-30.25-64.6h-24.85q-3.315,0-3.31,5.79c0,2.16.25,3.62,0.75,4.39a6.833,6.833,0,0,0,2.98,2.15,5.907,5.907,0,0,1,3.2,2.94,15.318,15.318,0,0,1,.71,5.34v97.83q0,2.4-4.62,4.3a3.259,3.259,0,0,0-2.39,3.23,25.814,25.814,0,0,0,.45,6.33,2.054,2.054,0,0,0,2.23,1.28h23.84q2.325,0,2.64-.66t0.31-6.7q0-2.9-3.77-4.47c-3-1.22-4.49-3.04-4.49-5.46v-58.44Zm104.98-15.07q0,2.82-3.12,4.64a6.718,6.718,0,0,0-2.59,2.32,15.966,15.966,0,0,0-.45,4.97c0,2.1.6,3.14,1.79,3.14h39.91c1.38,0,2.28-.31,2.7-0.95s0.62-2.36.62-5.17a8.193,8.193,0,0,0-.36-3.27,7.678,7.678,0,0,0-1.52-1.45q-4.23-3.48-5.31-10.1l-14.75-90.95q-0.54-3.48-1.08-7.04-1.26-9.18-2.51-11.92a4.465,4.465,0,0,0-4.4-2.73h-34.32q-2.34,0-2.88,1.08c-0.36.72-.54,2.59-0.54,5.63,0,2.26.61,3.72,1.81,4.39q3.87,1.98,3.87,4.55a20.82,20.82,0,0,1-.44,3.89l-16.65,97.41a9.242,9.242,0,0,1-3.41,5.46,9.414,9.414,0,0,0-3.15,7.37c0,2.53.66,3.8,1.97,3.8h23.65a2.075,2.075,0,0,0,1.93-.7c0.27-.47.4-1.83,0.4-4.1a9.679,9.679,0,0,0-.54-3.8,5.516,5.516,0,0,0-2.77-2.24q-4.2-2.07-4.2-5.05a14.623,14.623,0,0,1,.76-4.3,2.3,2.3,0,0,0,.19-0.75l1.04-7.61h22.4q1.95,10.59,1.95,13.48h0Zm-2.87-23h-19.99l10.15-64.68Zm119.97-78.05q0-4.05,4.5-5.46a5.411,5.411,0,0,0,3.01-1.69,8.03,8.03,0,0,0,.58-3.69c0-3.03-.29-4.89-0.85-5.58a4,4,0,0,0-3.19-1.04h-41.43q-2.34,0-2.88.87c-0.36.58-.54,2.08-0.54,4.51a11.028,11.028,0,0,0,.63,4.39q0.63,1.32,3.42,2.4,3.225,1.32,3.23,4.38v98.33q0,7.2-5.12,8.69a3.29,3.29,0,0,0-2.11,1.45,11.232,11.232,0,0,0-.5,4.26q0,4.305,3.78,4.3h59.13c1.74,0,2.89-.33,3.46-0.99a9.144,9.144,0,0,0,1.39-4.06l3.15-19.78a24.392,24.392,0,0,0,.45-3.72,2.358,2.358,0,0,0-1.17-2.28c-0.78-.41-2.52-0.62-5.21-0.62a11.3,11.3,0,0,0-5.22.87c-1.02.58-1.88,2.22-2.6,4.93q-3.06,10.5-4.94,13.4a6.476,6.476,0,0,1-5.85,2.9h-5.12V1080.75Z"/>
  <path id="Cameron_s" data-name="Cameron’s" class="cls-2" d="M718.69,955.841l-11.157-48.152c-21.14,4.4-68.412,28.774-68.412-22.608,0-46.1,34.059-45.511,63.714-37.583l0.294,0.294,4.4-50.208c-28.187-9.1-131.832-9.4-123.9,90.726C590.381,970.816,647.929,983.441,718.69,955.841Zm2.57,28.187,61.366-3.817,13.8-76.046,27.013-1.174,23.2,77.22,49.034-3.23L847.808,785.252H772.936Zm79.863-166.185,16.443,0.587,1.468,51.383-22.609-1.468ZM1100.21,977.862l45.51-8.808-36.7-177.049-65.48,4.4-19.08,77.221c-5.29-3.524-52.558-84.855-54.907-89.552l-39.932,1.761L907.307,976.688c22.021,0.881,49.033-.881,49.033-1.175L967.791,875.1l32.589,61.071,49.62,2.055,22.61-73.4Zm56.54,11.451,106.88-11.744-2.65-39.345c-3.52-.587-56.37,0-62.83,0l-5.87-38.463h34.35V858.655l-38.46-.587-2.65-29.948,60.49-.881-4.7-43.455c-101,5.872-102.18,6.459-102.18,6.459Zm134.4,4.111,48.15-6.46v-0.587l-7.34-79.569,40.81,74.871c0.59,0,2.06,0,45.81-6.753v-0.881c-7.34-9.395-32.01-71.054-37.88-81.037,26.13-7.634,38.46-17.029,39.64-43.161,3.52-75.752-93.96-72.816-145.05-53.731v1.174Zm29.65-170.3c18.5-5.872,45.22-5.872,53.44,12.038,12.33,27.013-29.07,30.242-47.86,29.655Zm111.78,64.3c0.59,55.787,40.81,81.331,81.04,79.276,40.81-2.349,81.33-33.178,81.92-90.433,0.29-47.565-21.44-96.011-76.64-96.011C1454.6,780.261,1431.99,827.239,1432.58,887.429Zm45.81-8.514c0.58-29.068,14.38-51.676,37.28-51.676,49.04,6.166,46.4,92.488-1.46,92.488C1493.07,919.727,1478.39,903.578,1478.39,878.915Zm178.12,98.066-1.47-93.075,47.27,88.084,46.69-4.4,8.51-172.351-46.98-3.817c-2.34,78.982-2.93,83.092-2.93,84.267l-0.59-.587-42.28-83.093-55.49-1.174-1.76,188.793Zm112.66-196.72,7.63,73.4,20.55-1.175,4.12-72.228h-32.3Zm71.61,207c51.68,1.174,111.58-8.221,109.23-59.31-2.94-64.888-44.63-51.969-81.04-78.982-22.9-21.727,14.68-35.821,45.51-28.187,0,0,0-.293-5.87-40.518-43.46,4.4-96.01,8.221-93.66,62.833,2.35,59.31,101.59,34.059,89.84,87.79-13.8,23.783-47.27,17.323-68.12,15.562Z"/>
  <rect class="cls-3" x="5.375" y="728.812" width="521.687" height="540.908"/>
  <path class="cls-2" d="M506.068,1019.81l37.265-20.635-37.258-20.644,32.342-27.216L497.68,938.034l26.191-32.747L481.213,899.9l19.033-37.016-42.934,2.69,11.14-39.867-41.567,10.671,2.822-41.185-38.595,18.251L385.5,772.506l-34.138,25.132L337.541,758.55l-28.375,31.04-21.514-35.758L266.143,789.59l-28.375-31.04-13.829,39.088-34.133-25.132-5.614,40.933L145.6,795.177l2.817,41.2L106.858,825.69l11.133,39.879-42.933-2.7L94.09,899.9l-42.658,5.381,26.192,32.758L36.88,951.3l32.343,27.228L31.964,999.163l37.259,20.647-32.349,27.22,40.749,13.27-26.2,32.75,42.658,5.39-19.032,37.03,42.933-2.7-11.133,39.88,41.56-10.69-2.815,41.2,38.589-18.26,5.614,40.93,34.139-25.13,13.823,39.09,28.375-31.03,21.5,35.74,21.52-35.74,28.363,31.04,13.842-39.1,34.127,25.13,5.62-40.93,38.583,18.26-2.81-41.2,41.554,10.7-11.127-39.89,42.927,2.71-19.026-37.04,42.653-5.38L497.68,1060.3l40.737-13.27Z"/>
  <path class="cls-4" d="M284.282,970.888s-27.817,5.281-43.082,3.01c-7.1-1.055-10.348-12.3-3.778-17.576,6.052-4.857,7.318-30.8-24.247-27.828-24.707,2.341-20.581,22.135-14.3,25.749,6.049,3.465,5.764,14.264-6.8,17.346-17.2,4.208-69.356-6.189-69.356-6.189s5.752,25.538,3.282,39.55c-1.154,6.52-13.4,9.51-19.15,3.47-5.293-5.55-33.553-6.71-30.306,22.26,2.541,22.68,24.107,18.9,28.036,13.12,3.78-5.54,15.55-5.28,18.9,6.25,4.589,15.79.755,79.09,0.755,79.09s40.695-5.7,58.709-4.76c11.58,0.6,9.31,14.47.238,19.33-9.7,5.19-5.87,29.55,19.026,28.34,23.721-1.17,31.612-24.18,19.523-32.51-7.839-5.4-4.451-13.62,2.8-14.48,12.609-1.48,56.893.61,56.893,0.61s6.89-38.83,4.592-51.41c-2.468-13.47-19.279-5.35-21.391-2.77-13.6,16.65-41.819,7.54-41.819-20.4,0-40.7,40.282-33.79,44.1-24.01,4.18,10.77,18.042,8.01,19.558,1.39C290,1013.02,284.282,970.888,284.282,970.888Z"/>
  <path class="cls-4" d="M411.531,884.654a76.472,76.472,0,0,1-7.2,26.625c-0.239.462-23.572,46.546-23.572,75.342l-0.793,8.523c-1.262,5.686-3.892,8.576-7.835,8.576H327.306c-3.928,0-6.564-2.89-7.829-8.576l-0.793-8.523c0-28.8-23.334-74.88-23.379-75.342a72.8,72.8,0,0,1-7.4-26.625l-0.263-6.29a71.544,71.544,0,0,1,18.175-48.339c11.729-12.923,27.316-20.043,43.9-20.043a56.888,56.888,0,0,1,17.523,2.762,61.437,61.437,0,0,1,26.379,17.281A71.573,71.573,0,0,1,411.8,878.364ZM321.507,1013.53a5.955,5.955,0,0,1,5.738-6.15h44.949a6.181,6.181,0,0,1,0,12.33,6.181,6.181,0,0,1,0,12.33,6.186,6.186,0,0,1,0,12.34H327.245a6.186,6.186,0,0,1,0-12.34,6.181,6.181,0,0,1,0-12.33A5.969,5.969,0,0,1,321.507,1013.53Zm28.217,43.29a21.727,21.727,0,0,1-18-10.05h35.993A21.718,21.718,0,0,1,349.724,1056.82Z"/>
  <path class="cls-2" d="M468.747,941.663c-13.687,8.158-29.194,7.986-43.719,5.553l-6.008-1.566a4.616,4.616,0,0,1-2.233-1.737L410.22,934.9c-2.668-4.172-4.748-9.2-4.748-14.068,0.417-24.632-5.583-54.15-26.4-62.649-21.093-8.5-39.536,9.2-45.261,34.358l0,0.019,2.656,4.152c5.029,7.816.841,19.614,7.12,26.9l0.422,1.347c4.669,2.318,9.857,3.411,13.829,7.671a2.831,2.831,0,0,1,.7,3.133,1.636,1.636,0,0,1-2.372.868,14.45,14.45,0,0,0-9.785-2.775c0,0.176.143,0.176,0.143,0.34l-5.587-2.435a3.288,3.288,0,0,1-2.093-2.435l-2.1-4.49c-4.891-6.258-3.492-14.93-5.447-22.22V903.3l-4.334-6.934a6.958,6.958,0,0,1-.553-2.946l2.793-11.464c8.515-28.8,33.521-42.857,56.569-30.2,20.954,11.632,28.352,42.183,28.22,69.071-0.142,4.513,3.35,8.159,5.861,11.8-0.135-.17-0.135-0.17-0.274-0.341l2.382,3.335,10.884,1.863c11.18,1.394,22.9,1.565,33.671-3.455,1.67-.874,3.625.337,4.188,2.423C471.4,938.545,470.428,940.971,468.747,941.663ZM348.582,841.58c-2.373-6.765-5.729-4.172-8.8-4.685l-0.426-.265-0.405.1c-13.416,5.729-24.025,20.474-25.424,38.53a1.879,1.879,0,0,1-1.961,1.913c-0.974-.177-1.535-1.4-1.392-2.612,0.282-18.567,10.894-34.713,24.443-41.833l4.466-2.778a1.978,1.978,0,0,1,1.958.186l0.974,1.041c7.406-3.3,8.241,0,9.079,3.288a4.239,4.239,0,0,1,1.545,5.04C351.938,841.58,350.13,842.454,348.582,841.58Zm-72.29,78.681a1.862,1.862,0,1,1-3.639,0c0.974-42.516,19.973-86.086,50.291-107.073,1.248-1.054,2.925-.526,3.767,1.047a3.883,3.883,0,0,1-.7,4.677C297.927,840.766,281.871,880.523,276.292,920.261ZM275.2,846.848c-0.889,1.709-1.973,3.388-2.854,5.1a1.54,1.54,0,0,1-2.294.841,2.346,2.346,0,0,1-.674-2.82c0.412,0.161,1.415-1.04,1.449.143l0.364-4.766-2.341-6.013c-14.176-33.483-51.285-26.768-69.319-5.162-22.851,27.46-5.259,67.967,15.065,91.719a3.992,3.992,0,0,1-.034,4.825,2.355,2.355,0,0,1-3.874-.043c-24.106-24.775-40.7-73.4-14.594-102.418,22.365-24.818,65.739-27.63,78.688,13.329l0.607,2.7a3.49,3.49,0,0,1-.007.868ZM238.037,1003.19l0.137,1.56-0.7-1.91,1.4,7.29,0.28,1.2a3.585,3.585,0,0,1-2.515,1.91c-0.979-.68-1.261-1.91-1.673-2.42a6.932,6.932,0,0,0-.592-1.26c-0.668-4.46-.669-4.46-0.669-4.46v-0.19c-0.148-2.42,1.961-4.71,1.961-30.285,0-25.523-35.534-37.6-56.162-36.693-24.536,1.075-40.2,19.292-47.488,32.791-12.575,23.322-2.249,30.927-2.249,30.927,0.836,4.16,3.829,5.23,3.829,5.23-2.372-2.43,4.589,2.84,4.589,2.84a13.817,13.817,0,0,0,12.268,2.32c10.038-2.62,14.526-15.973,14.526-15.973l-0.132.172c-0.16-3.011-.26-4.883-0.322-6.05-2.749-4.168-2.939-4.237-4.572-4.543a47.513,47.513,0,0,0-5.592-.856c-1.53-2.092-1.393-4.512-1.393-6.947,1.678-2.095,3.765-1.909,11.729-6.777,0.986,8.343,5.176,10.763,5.176,10.763,2.1,2.961,2.1,2.961,2.79,3.817a9.269,9.269,0,0,1,.419,2.611c-0.145,2.778,4.76,9.519-10.807,24.793-14.533,14.26-28.445,3.32-28.445,3.32-3.628-1.56-1.759-1.67-3.3-2.37a23.686,23.686,0,0,0-3.271-3.71c-0.838-3.3-8.131-10.9-7.432-21.948,0.852-13.66,12.617-34.206,34.814-48.331,24.423-15.542,50.077-5.832,69.7,7.639C253.675,967.775,238.037,1003.19,238.037,1003.19Zm-3.664,6.37c0.092,0.62.2,1.32,0.317,2.13C234.69,1011.69,234.022,1009.12,234.373,1009.56Zm-70.237,37.88c12.714,10.58,12.3,30.19,21.935,42.69v-0.19l5.2,7.06,16.456,4.06c18.164,0.87,35.9-3.47,53.782-6.76,1.537-.36,2.925,1.02,3.21,2.95,0.275,1.91-.7,3.65-2.233,3.98-21.375,4.87-43.447,13.37-65.095,6.42l-8.661-2.09a3.724,3.724,0,0,1-1.957-1.38l-2.934-4.16c-12.291-12.67-11.174-35.75-25.144-47.2-28.215-23.26-50.849,17.54-64.533,43.57a1.55,1.55,0,0,1-2.372.52,2.566,2.566,0,0,1-.425-2.97C105.059,1063.07,132.293,1020.36,164.136,1047.44Zm-8.79,34.53a1.849,1.849,0,0,1,1.673,2.09c-0.565,51.89,52.1,51.89,82.553,43.39,1.4-.7,2.934.17,3.352,1.89a3.4,3.4,0,0,1-1.541,4.17c-25.144,8.5-56.011,9.91-78.358-12.14-9.077-8.84-11.037-23.61-9.359-37.31A1.842,1.842,0,0,1,155.346,1081.97Zm70.674,5.9-2.09-1.04a2.271,2.271,0,0,1-1.261-2.25l0.836-.18c-0.125-1.75-.36-3.62-0.5-5.37,3.546,5.5,3.579,5.55,3.579,5.55l-1.261-2.27c4.332,1.75,15.486.83,25.754-6.83,7.48-5.58,28.877-31.21,39.914-53.51,9.11-18.41,28.274-18.65,31.113-18.41,7.334,0.61,34.1,19.23,34.1,19.23a50.69,50.69,0,0,0,3.639,3.99,10.182,10.182,0,0,1,.417,1.39c1.958,5.38.624,1.16,6.342,29.45-2.936,35.41-23.665,56.1-27.578,59.06-4.609.52-9.357,0-18.439-1.22-7.541-5.72-9.778-16.65-11.176-23.25a52.947,52.947,0,0,1,2.793-11.11c2.24-7.97,2.24-7.97,2.515-9.9a6.531,6.531,0,0,1,2.647-1.9l8.112-2.78c1.673-.85,3.5.17,4.191,2.26,0.7,1.91,0,4.35-1.68,5.2-1.673,1.04-3.21,2.26-4.887,3.31l-1.437.58-0.379,2.36c-2.65,5.21-4.6,10.94-2.936,16.83,3.072,10.08,13.27,12.33,19.42,8.5,19.97-12.66,22.627-45.98,16.9-71.13l-0.734-2.87-0.246-.27c-15.643-16.14-36.964-25.91-56.994-7.46C280.5,1054.03,259.4,1093.24,226.02,1087.87Zm-3.066-9.35c0.012,0.16.035,0.34,0.049,0.51-0.119-.18-0.208-0.32-0.334-0.51h0.285Zm2.649-2.11c0.7,0.88.7,2.11-.562,2.11h-2.087v-1.23A2.979,2.979,0,0,1,225.6,1076.41ZM381.5,944.866c17.029,1.907,39.667,6.079,43.577,30.035,5.436,33.489,6,73.749-18.161,96.839a1.551,1.551,0,0,1-2.518,0,2.6,2.6,0,0,1,0-3.13c18.018-25.51,19.837-61.09,13.131-92.334-4.188-19.435-23.6-18.041-37.7-22.911-1.834-.511-2.936-2.946-2.522-5.2C377.715,945.905,379.535,944.338,381.5,944.866Zm12.984,92.844c0.7,2.25-.274,4.69-2.1,5.39-1.673.87-3.635-.36-4.188-2.61-6.14-39.74-39.811-55.885-68.866-59.7-0.981,0-1.68-1.038-1.68-2.262a2.019,2.019,0,0,1,1.68-2.25C350.337,977.33,389.872,993.974,394.481,1037.71ZM303.246,918.467c8.176-3.444,16.994,1.766,21.91,9.925,4.191,6.664,2.069,14.935-1.431,21.272l-1,1.794a3.475,3.475,0,0,1-1.659,1.339L318,954.136c-3.354,1.466-8.326,3.771-11.1-1.652-1.48-.728-2.144-2.735-1.709-4.6,0.575-1.68,2.205-2.678,3.685-1.944,1.841-.121,3.525-0.064,5.351-0.164l3.381-.876,2.007-3.655c2.9-8.719-5.418-15.857-11.042-14.37C283,933.39,264.48,963.718,257.342,994.2c-0.11,1.2-.891,2.141-1.865,2.013a2.045,2.045,0,0,1-1.612-2.32c-1.445-17.457,10.162-31.431,18.221-44.866C280.3,935.3,290.111,924.22,303.246,918.467Zm-23.865,77.772a1.671,1.671,0,0,1,2.511.341,2.866,2.866,0,0,1-.271,3.133c-11.454,13.527-21.382,29.327-35.763,38.7-11.455,7.64-26.4,9.9-37.023-1.73-8.8-9.56-13.539-23.44-12-37.836-0.142-2.435,1.249-4.7,3.2-4.87s3.638,1.738,3.776,4.173c0.424,15.273,4.749,32.443,17.74,35.923C246.551,1040.84,261.22,1011.33,279.381,996.239Zm-25.542-45.428c-0.841,2.071-2.932,3.125-4.744,1.9a4.832,4.832,0,0,1-1.546-5.726c5.035-16.83,2.944-38-5.444-52.582a2.557,2.557,0,0,1-.137-3.111,1.587,1.587,0,0,1,2.659-.192c0.138-.17.138-0.513,0.28-0.7C258.6,903.944,261.523,932.585,253.839,950.811Zm-41.488-82.466,11.44,0.615c12-.683,21.087-10.751,20.538-23.594,0.137-1.567,1.249-2.939,2.647-2.775a3.08,3.08,0,0,1,2.233,3.288c0.839,21.357-19.138,34.015-34.356,29.516l-4.482-.7a2.114,2.114,0,0,1-1.673-1.226l-1.254-2.078a45.166,45.166,0,0,1-4.327-11.789,2.519,2.519,0,0,1,.694-2.954,1.615,1.615,0,0,1,2.377.86c1.95,1.566,2.8,3.988,3.9,6.429-0.132-.363-0.27-0.868-0.412-1.217Zm96.224,176.495,0.557-1.06a1.983,1.983,0,0,1,1.819-1.2l4.052,0.35c1.4,1.04,2.929,2.25,4.327,3.29a2.074,2.074,0,0,1,.557,2.77,1.355,1.355,0,0,1-2.237.7c-0.688-.7-0.135-3.64-2.233-1.91H312l-1.325,2.09c-17.89,12.14-26.544,45.98-13.834,66.98,16.206,26.73,43.31,33.15,67.617,23.78,46.37-17.52,71.373-78.44,80.873-133.64,0.274-2.24,1.947-3.63,3.77-3.29,1.673,0.34,2.936,2.6,2.511,4.69-7.961,59.17-36.867,123.22-86.045,140.91-27.239,9.9-57.268,1.57-74.872-27.93C275.746,1096.55,287.211,1056.81,308.575,1044.84Zm-15.014,114.73c11.461,2.59,22.352,4.85,33.664,9.37,58.245,22.38,107.281-33.15,137.449-88.85a2.615,2.615,0,0,1,4.188-.88,4.451,4.451,0,0,1,.706,5.21c-29.194,65.42-96.387,123.91-157.857,86.26-5.722-3.48-12.568-5.03-19.135-7.13a2.277,2.277,0,0,1-1.113-2.59A1.652,1.652,0,0,1,293.561,1159.57Z"/>
</svg>
