<svg id="Shapes_group" data-name="Shapes group" xmlns="http://www.w3.org/2000/svg" xmlns:xlink="http://www.w3.org/1999/xlink" width="1990" height="535" viewBox="0 3.5 1990 535">
  <defs>
    <style>
      .cls-1, .cls-3 {
        fill: #09f;
      }

      .cls-1, .cls-2, .cls-3, .cls-4, .cls-5 {
        fill-rule: evenodd;
      }

      .cls-1 {
        filter: url(#filter);
      }

      .cls-3 {
        filter: url(#filter-2);
      }

      .cls-4, .cls-5 {
        fill: #ff4646;
      }

      .cls-4 {
        filter: url(#filter-3);
      }

      .cls-5 {
        filter: url(#filter-4);
      }
    </style>
    <filter id="filter" x="596" y="304.094" width="1327" height="174.906" filterUnits="userSpaceOnUse">
      <feFlood result="flood" flood-color="#044476"/>
      <feComposite result="composite" operator="in" in2="SourceGraphic"/>
      <feBlend result="blend" in2="SourceGraphic"/>
    </filter>
    <filter id="filter-2" x="26.969" y="24.844" width="511.375" height="490.656" filterUnits="userSpaceOnUse">
      <feFlood result="flood" flood-color="#044476"/>
      <feComposite result="composite" operator="in" in2="SourceGraphic"/>
      <feBlend result="blend" in2="SourceGraphic"/>
    </filter>
    <filter id="filter-3" x="76" y="204.25" width="211.5" height="243.75" filterUnits="userSpaceOnUse">
      <feFlood result="flood" flood-color="#b3d9ff"/>
      <feComposite result="composite" operator="in" in2="SourceGraphic"/>
      <feBlend result="blend" in2="SourceGraphic"/>
    </filter>
    <filter id="filter-4" x="303.875" y="81" width="124.125" height="246.938" filterUnits="userSpaceOnUse">
      <feFlood result="flood" flood-color="#b3d9ff"/>
      <feComposite result="composite" operator="in" in2="SourceGraphic"/>
      <feBlend result="blend" in2="SourceGraphic"/>
    </filter>
  </defs>
  <path id="TECH_JOURNAL" data-name="TECH JOURNAL" class="cls-1" d="M619.45,437.5a6.749,6.749,0,0,1-.729,3.652,7.9,7.9,0,0,1-3.458,2.172q-2.822,1.11-2.822,6.287,0,4.347.676,5.27t3.016,0.924h39.611q2.88,0,3.691-.785t0.81-5.5a12.81,12.81,0,0,0-.584-4.854,4.773,4.773,0,0,0-2.381-1.988q-4.314-1.941-4.313-7.026V316.947h2.7q2.515,0,4.223,5.131a96.963,96.963,0,0,1,3.145,13.174q0.808,4.9,2.112,5.825T671.028,342q3.592,0,4.268-1.479a10.594,10.594,0,0,0,.674-4.253q0-2.31-.18-4.53l-1.529-19.045q-0.363-4.622-.991-5.362t-3.508-.74H603.824q-4.318,0-5.393,1.156t-1.25,4.946l-1.093,21.541Q596,335.9,596,337.563q0,2.868,1.123,3.837t4.987,0.971q4.044,0,5.387-1.341t1.981-6.61q1.374-12.017,2.637-14.746t3.257-2.727h4.08V437.5ZM762.074,317.964q2.5,0,4.511,3.236t4.779,11.556q1.537,4.625,3.165,5.778t6.512,1.156q4.339,0,4.341-2.5a16.364,16.364,0,0,0-.36-2.5l-4.582-23.852q-0.54-2.774-1.528-3.513a5.3,5.3,0,0,0-3.145-.74H718.439q-2.607,0-3.145.694t-0.539,4.3q0,4.253.494,5.362t3.19,2.311q3.952,1.758,4.044,3.513V438.058q0,3.7-4.942,5.824a4.919,4.919,0,0,0-3.235,4.715q0,5.087.629,6.148t2.875,1.063h59.934q3.054,0,3.639-1.155a33.849,33.849,0,0,0,1.474-6.888l3.333-20.986a21.191,21.191,0,0,0,.36-3.236q0-3.7-5.571-3.7-4.044,0-5.661,1.572t-3.145,6.656q-3.686,12.113-5.346,14.654t-6.066,2.542H756v-63.7h7.009a3.624,3.624,0,0,1,2.92,1.11q0.943,1.108,1.932,6.009,0.987,5.363,2.022,6.518t4.088,1.155q4.671,0,5.571-.878t0.9-3.744V360.954q0-4.068-.944-4.669t-8.042-.6a2.228,2.228,0,0,0-2.111,1.294q-0.675,1.3-1.753,7.859-0.628,3.7-1.8,4.807a5.206,5.206,0,0,1-3.684,1.109H756V317.964h6.075Zm119.241-11.556Q879.338,309,878.26,309a5.542,5.542,0,0,1-2.7-1.294,18.076,18.076,0,0,0-11.232-3.606q-10.693.024-18.735,8.61t-13.208,24.349q-5.169,15.764-5.167,42.112,0,27.921,6.155,45.809t14.6,25.193a29.04,29.04,0,0,0,19.588,7.3,24.63,24.63,0,0,0,19.229-8.736q7.728-8.737,7.728-21.957,0-4.161-1.483-5.594t-5.256-1.433q-5.034,0-6.649,1.942t-1.887,6.934q-0.9,17.289-8.447,17.288-5.931,0-5.93-10.355V331.554q0-14.512,5.661-14.515,6.826,0,10.513,20.155,1.436,7.951,2.965,10.077t5.481,2.126q3.236,0,4.313-1.294t1.078-4.53q0-.832-0.089-1.757l-2.067-29.769q-0.36-5.454-1.168-6.7a2.7,2.7,0,0,0-2.426-1.248H884.46q-1.439,0-3.145,2.312h0Zm92.16,17.658a5.479,5.479,0,0,1,2.786-5.178,4.169,4.169,0,0,0,2.246-2.958v-4.345q0-3.235-.9-4.114a4.783,4.783,0,0,0-3.325-.879H937.443q-2.607,0-3.37.971t-0.764,5.871a8.371,8.371,0,0,0,3.325,7.119q3.324,2.4,3.325,5.084V437.411q0,3.421-3.774,5.454a6.886,6.886,0,0,0-2.516,2.034,8.731,8.731,0,0,0-.449,3.513q0,5.735.449,6.564t2.336,0.832h39.447a2.542,2.542,0,0,0,2.157-.739q0.538-.739.539-5.64a6.7,6.7,0,0,0-2.337-5.454,5.6,5.6,0,0,1-2.336-4.715V381.015h14.377v57.69a5.809,5.809,0,0,1-2.785,4.715,5.616,5.616,0,0,0-2.427,4.807q0,6.1.45,6.842t2.426,0.739h39.174q2.61,0,3.15-.6a3.868,3.868,0,0,0,.54-2.45v-5.824q0-1.663-3.15-3.7a7.98,7.98,0,0,1-3.86-6.934V325.637a6.131,6.131,0,0,1,3.32-5.732,18.7,18.7,0,0,0,3.64-2.172c0.39-.4.59-1.679,0.59-3.837q0-5.361-.54-6.333t-3.15-.971h-39q-2.068,0-2.516,1.156t-0.45,6.333q0,4.069,1.977,5.177a6.51,6.51,0,0,1,2.2,1.849,7.1,7.1,0,0,1,.4,2.959v46.5H973.475v-46.5ZM1146.7,307.424q-0.4.832-.41,6.564a4.245,4.245,0,0,0,3.24,4.438,7.854,7.854,0,0,1,4.45,2.912c0.8,1.264,1.21,4.146,1.21,8.644V443.05q0,23.76-15.28,25.147c-1.43.123-2.29,0.4-2.56,0.832a6.09,6.09,0,0,0-.4,2.773v3.514q0,2.309.9,3c0.6,0.462,2.36.694,5.3,0.694q23.265,0,34.41-15.116t11.14-36.38V325.73c0-2.465.2-4.068,0.59-4.808s1.48-1.386,3.28-1.941a5.123,5.123,0,0,0,3.01-1.895q0.675-1.155.67-5.594c0-2.279-.25-3.666-0.76-4.16s-1.6-.74-3.28-0.74h-42.86C1147.85,306.592,1146.97,306.87,1146.7,307.424Zm101.86,18.028q-12.18,21.357-12.17,55.841,0,33.653,11.86,54.916t32.44,21.263q21.645,0,33.56-21.772,11.895-21.772,11.9-53.39,0-26.349-6.11-43.175T1304.27,313.2a32.22,32.22,0,0,0-22.87-9.107Q1260.745,304.1,1248.56,325.452Zm39.94,111.5a13.307,13.307,0,0,1-2.02,7.211,6.093,6.093,0,0,1-5.35,3.236,6.275,6.275,0,0,1-5.12-2.912c-1.44-1.941-2.15-4.791-2.15-8.552V324.343a11.332,11.332,0,0,1,2.15-7.026,6.373,6.373,0,0,1,5.21-2.866q7.29,0,7.28,11.556V436.948ZM1367,307.979c-0.42.925-.62,3.175-0.62,6.749a8.866,8.866,0,0,0,.4,3.375,5.147,5.147,0,0,0,2.38,1.71c2.64,1.234,3.95,3.143,3.95,5.732v97.443q0,16.735,8.41,25.609t24.39,8.875q14.295,0,22.29-8.366t7.99-22.7V325.545a5.83,5.83,0,0,1,4.23-6.009,3.562,3.562,0,0,0,2.06-1.433,11.571,11.571,0,0,0,.36-3.745v-4.437q0-3.329-3.23-3.329H1420.2a3.506,3.506,0,0,0-2.47.792c-0.57.529-.86,2.1-0.86,4.7q0,5.029,3.06,7.45a8.66,8.66,0,0,1,2.47,2.634,9.857,9.857,0,0,1,.49,3.745V429.46a10.319,10.319,0,0,1-2.33,6.564,7.008,7.008,0,0,1-5.66,2.958,7.558,7.558,0,0,1-5.93-2.636,10,10,0,0,1-2.34-6.893V325.828a10.8,10.8,0,0,1,.67-4.625,6.72,6.72,0,0,1,2.66-2.315q2.6-1.477,2.6-6.009t-0.54-5.408c-0.36-.585-1.2-0.879-2.51-0.879H1370.6Q1367.63,306.592,1367,307.979Zm159.11,82.189q10.68,0,10.69,10.909v37.258a25.37,25.37,0,0,0,2.79,12.435q2.775,5.04,7.09,5.038h24.09c1.79,0,2.9-.338,3.32-1.017s0.63-2.8.63-6.379a5.744,5.744,0,0,0-2.43-5.085,4.665,4.665,0,0,1-2.06-4.16v-22q0-26.811-24.89-32.451,27.225-8.411,27.22-35.87,0-19.323-11.63-30.787t-26.47-11.464h-49.69q-3.765,0-3.77,7.161,0,3.579.54,4.315a5.882,5.882,0,0,0,2.69,1.468q4.32,1.295,4.32,7.309V435.186q0,5.922-4.95,7.957a2.526,2.526,0,0,0-1.79,1.9,39.483,39.483,0,0,0-.27,5.963c0,3.205,1.07,4.807,3.23,4.807h37.93c1.67,0,2.83-.416,3.45-1.248s0.95-3.035.95-6.61q0-3.7-2.39-5.27a5.29,5.29,0,0,1-2.25-2.311,15.471,15.471,0,0,1-.4-4.345V390.168h4.05Zm-0.99-73.036q6.015,0,8.85,3.189t2.83,10.956v29.769q0,18.4-8.9,18.4h-5.84V317.132h3.06Zm145.71,138.676h15.28V324.435a5.9,5.9,0,0,1,.81-3.328c0.54-.8,1.85-1.632,3.95-2.5a3.373,3.373,0,0,0,1.84-1.572,13.845,13.845,0,0,0,.41-4.345q0-5.825-2.07-6.1h-24.8a2.749,2.749,0,0,0-2.07.6q-0.54.6-.54,3.375,0,4.437.77,5.963a6.7,6.7,0,0,0,3.37,2.727q4.4,1.856,4.4,6.3v53.2l-30.24-72.163h-24.86c-2.2,0-3.31,2.159-3.31,6.472,0,2.4.25,4.037,0.76,4.9a6.842,6.842,0,0,0,2.97,2.4,6.146,6.146,0,0,1,3.2,3.282,18.933,18.933,0,0,1,.71,5.963V438.89q0,2.682-4.61,4.807a3.63,3.63,0,0,0-2.4,3.606,32.124,32.124,0,0,0,.45,7.072,2.061,2.061,0,0,0,2.24,1.433h23.83q2.325,0,2.64-.739t0.32-7.489q0-3.235-3.78-4.992-4.485-2.033-4.49-6.1v-65.27Zm104.97-16.839a6.038,6.038,0,0,1-3.12,5.19,7.011,7.011,0,0,0-2.59,2.589,19.815,19.815,0,0,0-.45,5.547c0,2.343.6,3.513,1.79,3.513h39.91c1.38,0,2.27-.354,2.69-1.063s0.63-2.635.63-5.778a10.141,10.141,0,0,0-.36-3.652,7.97,7.97,0,0,0-1.53-1.618q-4.215-3.882-5.3-11.279l-14.75-101.6q-0.54-3.883-1.08-7.859-1.26-10.262-2.52-13.313a4.438,4.438,0,0,0-4.4-3.051h-34.31c-1.56,0-2.51.4-2.87,1.2s-0.54,2.9-.54,6.288q0,3.792,1.8,4.9c2.58,1.479,3.88,3.175,3.88,5.086a24.945,24.945,0,0,1-.45,4.347l-16.64,108.808a10.53,10.53,0,0,1-3.42,6.1,11.112,11.112,0,0,0-3.14,8.229c0,2.835.65,4.252,1.97,4.252h23.64a1.977,1.977,0,0,0,1.93-.785c0.27-.523.4-2.049,0.4-4.577a12.307,12.307,0,0,0-.53-4.253,5.843,5.843,0,0,0-2.77-2.5q-4.2-2.312-4.2-5.644a18.047,18.047,0,0,1,.75-4.806,2.753,2.753,0,0,0,.19-0.832l1.04-8.5h22.4q1.95,11.824,1.95,15.056h0Zm-2.87-25.688h-19.99l10.16-72.253ZM1892.89,326.1q0-4.53,4.49-6.1c1.62-.555,2.62-1.186,3.01-1.895a9.634,9.634,0,0,0,.59-4.115q0-5.082-.86-6.24c-0.57-.77-1.63-1.156-3.19-1.156h-41.42c-1.56,0-2.51.324-2.87,0.971s-0.54,2.327-.54,5.039a13.614,13.614,0,0,0,.63,4.9q0.615,1.479,3.41,2.681a5.035,5.035,0,0,1,3.23,4.9V434.914q0,8.044-5.12,9.708a3.352,3.352,0,0,0-2.11,1.618,14.057,14.057,0,0,0-.49,4.761q0,4.808,3.77,4.807h59.13c1.73,0,2.89-.369,3.46-1.109a11.185,11.185,0,0,0,1.39-4.53l3.14-22.1a30.293,30.293,0,0,0,.45-4.16,2.707,2.707,0,0,0-1.17-2.543c-0.77-.462-2.51-0.693-5.21-0.693q-3.675,0-5.21.971t-2.6,5.5q-3.06,11.743-4.95,14.978a6.279,6.279,0,0,1-5.84,3.235h-5.12V326.1Z"/>
  <path id="Cameron_s" data-name="Cameron’s" class="cls-2" d="M746.216,261.349q19.3-12.3,30.986-40.992l-10.2-4.9a75.1,75.1,0,0,1-8.425,16.588,71.549,71.549,0,0,1-11.955,13.6,54.344,54.344,0,0,1-16.033,9.177,57.193,57.193,0,0,1-20.243,3.467,54.229,54.229,0,0,1-26.564-6.53,64.482,64.482,0,0,1-20.582-18.1,87.789,87.789,0,0,1-13.385-27.146,116.517,116.517,0,0,1-4.686-33.947,149.015,149.015,0,0,1,4.482-37.963q4.482-17.007,12.365-28.032A55.84,55.84,0,0,1,681.6,89.294a52.72,52.72,0,0,1,24.524-5.851,39.95,39.95,0,0,1,20.514,5.234,49.465,49.465,0,0,1,15.487,14.48,84.458,84.458,0,0,1,10.188,19.918A162.477,162.477,0,0,1,758.84,144.9h11.153l-1.224-68.8H757.888l-5.573,9.245A96.067,96.067,0,0,0,730.3,75.422a88.075,88.075,0,0,0-25.818-3.535,89.1,89.1,0,0,0-36.013,7.348,85.775,85.775,0,0,0-29.217,20.815A98.4,98.4,0,0,0,619.686,132.5q-7.068,18.846-7.067,41.974t7.2,41.564a95.206,95.206,0,0,0,19.3,31.224,84.806,84.806,0,0,0,28.064,19.591,83,83,0,0,0,33.093,6.8Q726.918,273.654,746.216,261.349Zm171.494-3.467q-4.626,0-9.045-.136t-6.461-1.359a14.865,14.865,0,0,1-5.645-5.3,16.606,16.606,0,0,1-1.836-8.429q0-17.811.408-32.835t0.408-34.466q0-13.595-3.6-22.23a31.371,31.371,0,0,0-10.542-13.664,36.617,36.617,0,0,0-15.438-6.73,111.564,111.564,0,0,0-19.927-1.564,58.2,58.2,0,0,0-17,2.651,62.6,62.6,0,0,0-14.826,6.459,44.358,44.358,0,0,0-11.494,10.2,19.055,19.055,0,0,0-1.224,22.773q3.194,4.828,10,4.827,7.617,0,11.9-3.943t4.285-8.7a41.586,41.586,0,0,0-1.293-9.789,37.063,37.063,0,0,1-1.292-8.022q2.175-2.31,7.549-4.418a31.583,31.583,0,0,1,11.63-2.108q9.111,0,14.078,3.739a27.127,27.127,0,0,1,7.685,8.77,28.479,28.479,0,0,1,3.2,9.517,57.17,57.17,0,0,1,.748,6.8v13.46q-6.528,3.537-25.231,9.79t-24.824,8.565a78.821,78.821,0,0,0-10.473,5.1,32.572,32.572,0,0,0-8.977,7.274,33.1,33.1,0,0,0-6.529,11.012,41.2,41.2,0,0,0-2.177,13.869q0,14.957,9.726,24.2t24.823,9.245q14.283,0,24.416-5.166A66.363,66.363,0,0,0,869.7,252.308h0.817q1.765,9.518,8.093,14.48t16.934,4.962a38.657,38.657,0,0,0,10.95-1.427q4.825-1.428,11.221-3.739v-8.7Zm-48.287-16.077a49.5,49.5,0,0,1-12.377,11.1,30.836,30.836,0,0,1-17,4.7q-9.114,0-15.03-5.313T819.1,235.674a27.9,27.9,0,0,1,3.945-15.056,36.851,36.851,0,0,1,10.745-10.97,81.915,81.915,0,0,1,16.187-8.175q8.7-3.27,20.267-6.677ZM1160.5,260.058a55.085,55.085,0,0,1-6.86-.884,36.648,36.648,0,0,1-6.19-1.836,10.589,10.589,0,0,1-5.58-4.69,16.505,16.505,0,0,1-1.63-7.818V176.713q0-23.112-9.92-34.262T1103.44,131.3a52.208,52.208,0,0,0-15.55,2.176,44.975,44.975,0,0,0-12.16,5.71,71.583,71.583,0,0,0-9.84,7.682q-3.735,3.6-8.62,8.361A39.908,39.908,0,0,0,1043.8,138.3q-9.39-7-22.44-7a52.75,52.75,0,0,0-15.44,2.176,43.345,43.345,0,0,0-11.9,5.438,74,74,0,0,0-9.113,7.478q-4.9,4.623-8.3,8.022h-0.953V135.245l-1.9-1.9-44.886,2.991v8.973a41.094,41.094,0,0,1,7.889,1.292,23.279,23.279,0,0,1,6.393,2.647,17.978,17.978,0,0,1,5.509,5.908,15.513,15.513,0,0,1,1.972,7.807v83.247a15.279,15.279,0,0,1-1.836,7.945,9.778,9.778,0,0,1-5.645,4.276,24.758,24.758,0,0,1-5.781,1.086q-3.334.273-6.461,0.544v8.973h65.153v-8.973a45.145,45.145,0,0,1-6.665-.952,27.907,27.907,0,0,1-5.848-2.04,11.938,11.938,0,0,1-5.713-4.758,14.64,14.64,0,0,1-1.9-7.75V167.74q1.365-1.9,4.092-5.643a32.363,32.363,0,0,1,6.679-6.73,41.13,41.13,0,0,1,10.771-5.778,36.848,36.848,0,0,1,12.542-2.107,20.307,20.307,0,0,1,16.16,7.681q6.48,7.683,6.48,21.822v69.2a15.338,15.338,0,0,1-1.84,7.953,9.783,9.783,0,0,1-5.64,4.283,24.123,24.123,0,0,1-5.38,1.088q-2.925.273-6.05,0.544v8.973h63.93v-8.973a40.264,40.264,0,0,1-6.6-.884,44.263,44.263,0,0,1-5.64-1.836,10.589,10.589,0,0,1-5.58-4.69,16.505,16.505,0,0,1-1.63-7.818V167.468a59.226,59.226,0,0,1,4.01-5.779,34.474,34.474,0,0,1,6.6-6.458,39.37,39.37,0,0,1,10.74-5.71,37.743,37.743,0,0,1,12.52-2.039,20.244,20.244,0,0,1,16.12,7.681q6.45,7.683,6.46,21.822v69.2a15.338,15.338,0,0,1-1.84,7.953,9.774,9.774,0,0,1-5.65,4.283,24.389,24.389,0,0,1-5.64,1.088q-3.195.273-6.32,0.544v8.973h65.28v-8.973Zm125.55-28.416q-8.16,14.76-16.93,20.432t-20.88,5.672q-11.835,0-20.41-4.565a37.908,37.908,0,0,1-13.87-12.468,57.469,57.469,0,0,1-7.96-18.941,105.431,105.431,0,0,1-2.51-23.985h88.82v-8.973a78.715,78.715,0,0,0-3.06-22.434,50.528,50.528,0,0,0-9.32-17.947,44.78,44.78,0,0,0-17-12.644q-10.485-4.621-25.17-4.623a55.485,55.485,0,0,0-25.77,5.914,58.863,58.863,0,0,0-19.25,15.568,72.207,72.207,0,0,0-12.17,22.638,81.2,81.2,0,0,0-4.15,25.628,96.258,96.258,0,0,0,3.88,27.6,65.728,65.728,0,0,0,11.76,22.841,55.724,55.724,0,0,0,20.06,15.5q12.18,5.711,28.36,5.71,18.375,0,32.51-9.517a68.648,68.648,0,0,0,22.58-25.561Zm-82.56-45.276q0.81-21.145,10.27-33.006t23.73-11.861q8.565,0,14.01,3.932a27.609,27.609,0,0,1,8.57,10.166,49.867,49.867,0,0,1,4.15,14.5,110.894,110.894,0,0,1,1.29,16.264h-62.02Zm204.91-49.082q-5.37-5.572-13.94-5.574t-18.91,5.71a61.014,61.014,0,0,0-18.77,16.724h-0.68v-18.9l-1.9-1.9-44.62,2.991v8.973a54.9,54.9,0,0,1,7.62,1.02,18.513,18.513,0,0,1,6.12,2.375,16.535,16.535,0,0,1,5.51,6.52,18.885,18.885,0,0,1,1.97,8.283v82.7a15.22,15.22,0,0,1-1.84,7.945,9.741,9.741,0,0,1-5.64,4.276,24.739,24.739,0,0,1-5.78,1.086c-2.22.182-4.38,0.363-6.46,0.544v8.973h70.73v-8.973q-3.945-.271-9.32-0.952a36.2,36.2,0,0,1-8.77-2.04,11.074,11.074,0,0,1-5.78-4.486,14.576,14.576,0,0,1-1.84-7.75V166.788a44.253,44.253,0,0,1,14.55-14.684q8.58-5.165,14.97-5.166c-0.28,1.631-.57,3.263-0.89,4.894a28.4,28.4,0,0,0-.47,5.439,11.965,11.965,0,0,0,4.01,8.7q4.005,3.945,11.63,3.943,7.065,0,10.47-5.37a22.482,22.482,0,0,0,3.4-12.3Q1413.77,142.859,1408.4,137.284Zm129.33,12.849q-18.315-18.967-46.49-18.967-29.685,0-48,19.986t-18.31,51.394a78.633,78.633,0,0,0,5.24,29.436,67.163,67.163,0,0,0,14.09,22.229,61.3,61.3,0,0,0,20.56,14.072,62.68,62.68,0,0,0,24.37,4.827,69.94,69.94,0,0,0,27.78-5.3,59.623,59.623,0,0,0,21.79-16.179,66.4,66.4,0,0,0,12.8-23.181,88.627,88.627,0,0,0,4.49-27.805Q1556.05,169.1,1537.73,150.133Zm-19.79,96.192q-9.945,16.454-26.98,16.452-10.35,0-17.37-4.963a38.477,38.477,0,0,1-11.65-13.664,69.568,69.568,0,0,1-6.75-19.782,129.732,129.732,0,0,1-2.11-24.133,124.7,124.7,0,0,1,1.77-20.531,62.368,62.368,0,0,1,6.14-18.9,38.034,38.034,0,0,1,12.05-14.14q7.425-5.166,17.92-5.167,10.23,0,17.31,5.1a37.694,37.694,0,0,1,11.45,13.528,68.132,68.132,0,0,1,6.13,19.238,122.031,122.031,0,0,1,2.04,21.55Q1527.89,229.875,1517.94,246.325Zm205.55,13.733a43.892,43.892,0,0,1-6.6-.816,35.365,35.365,0,0,1-5.64-1.9,10.792,10.792,0,0,1-5.58-4.554,15.682,15.682,0,0,1-1.63-7.682V175.354q0-19.988-9.32-32.019T1666.09,131.3a52.163,52.163,0,0,0-15.64,2.176,48.544,48.544,0,0,0-11.97,5.438,70.22,70.22,0,0,0-9.25,7.41q-4.9,4.557-8.16,7.818h-0.68v-18.9l-1.91-1.9-44.61,2.991v8.973a54.747,54.747,0,0,1,7.61,1.02,18.513,18.513,0,0,1,6.12,2.375,16.821,16.821,0,0,1,5.51,6.316,18.353,18.353,0,0,1,1.98,8.487v82.7a15.317,15.317,0,0,1-1.84,7.945,9.764,9.764,0,0,1-5.65,4.276,24.739,24.739,0,0,1-5.78,1.086q-3.33.273-6.46,0.544v8.973h65.7v-8.973a55.409,55.409,0,0,1-6.87-.952,26.849,26.849,0,0,1-6.19-2.04,12.216,12.216,0,0,1-5.71-4.622,13.936,13.936,0,0,1-1.9-7.614V167.74a59.694,59.694,0,0,1,3.88-5.779,30.167,30.167,0,0,1,7.16-6.73,46.874,46.874,0,0,1,10.63-5.506,37.5,37.5,0,0,1,13.23-2.243q9.675,0,16.43,7.749,6.735,7.75,6.75,22.026V246.19a15.338,15.338,0,0,1-1.84,7.953,9.774,9.774,0,0,1-5.65,4.283,25.777,25.777,0,0,1-6.18,1.088q-3.75.273-6.87,0.544v8.973h65.56v-8.973ZM1777.9,68.692q-5.04-7.68-16.6-7.682-7.485,0-11.83,4.963a15.741,15.741,0,0,0-4.36,10.537q0,7.75,4.77,12.1,4.755,4.353,13.33,4.351h6.52a31.967,31.967,0,0,1-2.72,11.625,37.669,37.669,0,0,1-5.84,8.5,41.06,41.06,0,0,1-7.83,6.594q-5.1,3.468-10.67,6.731l4.62,8.021a110.322,110.322,0,0,0,10.47-6.458,76.057,76.057,0,0,0,11.97-9.993,52.016,52.016,0,0,0,9.32-12.848,34.737,34.737,0,0,0,3.88-16.384Q1782.93,76.376,1777.9,68.692Zm100.58,126.24a131.781,131.781,0,0,0-16.93-6.662q-9.12-2.99-15.3-5.371a52.464,52.464,0,0,1-10.27-5.1,18.755,18.755,0,0,1-6.33-6.934,22.012,22.012,0,0,1-2.11-10.2,17.4,17.4,0,0,1,6.4-13.556q6.39-5.614,17.54-5.615a32.061,32.061,0,0,1,23.06,9.08q9.45,9.081,12.31,23.551h9.38l-2.04-43.1h-9.79l-3.13,7.07a55.793,55.793,0,0,0-13.4-4.894,66.878,66.878,0,0,0-16.12-2.04q-20.535,0-32.78,11.421a36.678,36.678,0,0,0-12.24,27.872,33.36,33.36,0,0,0,3.81,16.315,38.321,38.321,0,0,0,9.79,11.693,56.785,56.785,0,0,0,13.4,7.818,133.758,133.758,0,0,0,14.22,5.234q8.01,2.448,14.55,4.963a52.3,52.3,0,0,1,11.02,5.642,21.664,21.664,0,0,1,6.59,7.274,20.385,20.385,0,0,1,2.25,9.857q0,11.081-7.07,17.03t-20.14,5.948a33.9,33.9,0,0,1-16.66-4.092,47.379,47.379,0,0,1-12.72-10.1,59.535,59.535,0,0,1-8.56-12.823,52.258,52.258,0,0,1-4.63-12.417h-9.38l1.36,46.635h10.2l2.72-8.838q4.215,3.537,14.08,7.75a54.236,54.236,0,0,0,21.55,4.215q22.17,0,36.12-11.829t13.94-30.455a36.8,36.8,0,0,0-2.99-15.636,34.435,34.435,0,0,0-8.57-11.284A55.615,55.615,0,0,0,1878.48,194.932Z"/>
  <path class="cls-3" d="M501.068,290.807l37.265-20.633-37.258-20.643,32.342-27.216L492.68,209.034l26.191-32.747L476.213,170.9l19.033-37.016-42.934,2.69L463.452,96.7l-41.567,10.671,2.822-41.185L386.112,84.439,380.5,43.507,346.365,68.638,332.541,29.55l-28.375,31.04L282.652,24.833,261.143,60.589,232.768,29.55,218.939,68.638,184.806,43.507l-5.615,40.933L140.6,66.177l2.817,41.2L101.858,96.69l11.133,39.879-42.933-2.7L89.09,170.9l-42.658,5.381,26.192,32.758L31.88,222.3l32.343,27.228L26.964,270.163l37.259,20.644L31.875,318.033,72.624,331.3l-26.2,32.745,42.658,5.393L70.052,406.47l42.933-2.7-11.133,39.879,41.56-10.682-2.815,41.2L179.186,455.9,184.8,496.83,218.939,471.7l13.823,39.089,28.375-31.028,21.5,35.746,21.52-35.746,28.363,31.04,13.842-39.1,34.127,25.132,5.62-40.932L424.7,474.16l-2.81-41.2,41.554,10.693-11.127-39.89,42.927,2.713-19.026-37.039,42.653-5.381L492.68,331.3l40.737-13.271Z"/>
  <path class="cls-4" d="M284.167,246.846s-27.839,5.279-43.117,3.009c-7.1-1.054-10.356-12.295-3.781-17.572,6.057-4.856,7.324-30.8-24.266-27.82-24.727,2.34-20.6,22.128-14.308,25.741,6.054,3.465,5.769,14.261-6.8,17.343-17.215,4.206-69.411-6.188-69.411-6.188s5.757,25.531,3.284,39.541c-1.154,6.514-13.412,9.5-19.165,3.468-5.3-5.55-33.579-6.712-30.33,22.255,2.543,22.678,24.126,18.89,28.059,13.12,3.783-5.546,15.561-5.288,18.91,6.245,4.593,15.789.756,79.071,0.756,79.071s40.728-5.7,58.756-4.764c11.589,0.6,9.318,14.468.238,19.329-9.712,5.191-5.875,29.544,19.042,28.333,23.74-1.17,31.637-24.178,19.538-32.5-7.845-5.4-4.455-13.622,2.8-14.477,12.62-1.483,56.939.6,56.939,0.6s6.895-38.816,4.6-51.391c-2.47-13.473-19.3-5.35-21.409-2.777-13.608,16.649-41.852,7.547-41.852-20.387,0-40.693,40.314-33.782,44.131-24,4.184,10.763,18.056,8,19.574,1.388C289.892,288.97,284.167,246.846,284.167,246.846Z"/>
  <path class="cls-5" d="M427.719,155.713a76.56,76.56,0,0,1-7.2,26.635c-0.239.462-23.561,46.564-23.561,75.371l-0.793,8.526c-1.261,5.687-3.89,8.575-7.832,8.575h-44.8c-3.926,0-6.561-2.888-7.825-8.575l-0.793-8.526c0-28.807-23.323-74.909-23.368-75.371a72.863,72.863,0,0,1-7.394-26.635l-0.263-6.292a71.607,71.607,0,0,1,18.166-48.358c11.724-12.928,27.3-20.05,43.885-20.05a56.821,56.821,0,0,1,17.515,2.763,61.414,61.414,0,0,1,26.367,17.287,71.637,71.637,0,0,1,18.163,48.358ZM337.736,284.641a5.96,5.96,0,0,1,5.735-6.157H388.4a6.183,6.183,0,0,1,0,12.334,6.185,6.185,0,0,1,0,12.338,6.189,6.189,0,0,1,0,12.344H343.471a6.189,6.189,0,0,1,0-12.344,6.185,6.185,0,0,1,0-12.338A5.969,5.969,0,0,1,337.736,284.641Zm28.2,43.3a21.71,21.71,0,0,1-17.992-10.053h35.977A21.7,21.7,0,0,1,365.94,327.942Z"/>
</svg>
